<svg width="44" height="44" viewBox="0 0 44 44" fill="none" xmlns="http://www.w3.org/2000/svg">
<path d="M8.375 29.2917C8.375 30.0971 9.02792 30.75 9.83333 30.75H33.1667C33.9721 30.75 34.625 30.0971 34.625 29.2917C34.625 28.4863 33.9721 27.8333 33.1667 27.8333H9.83333C9.02792 27.8333 8.375 28.4863 8.375 29.2917ZM8.375 22C8.375 22.8054 9.02792 23.4583 9.83333 23.4583H33.1667C33.9721 23.4583 34.625 22.8054 34.625 22C34.625 21.1946 33.9721 20.5417 33.1667 20.5417H9.83333C9.02792 20.5417 8.375 21.1946 8.375 22ZM9.83333 13.25C9.02792 13.25 8.375 13.9029 8.375 14.7083C8.375 15.5137 9.02792 16.1667 9.83333 16.1667H33.1667C33.9721 16.1667 34.625 15.5137 34.625 14.7083C34.625 13.9029 33.9721 13.25 33.1667 13.25H9.83333Z" fill="#0B457F"/>
</svg>
